Coordinates
version=1
nRows=8
nColumns=40
inDegrees=yes

Units are S.I. units (second, meters, Newtons, ...)
If the header above contains a line with 'inDegrees', this indicates whether rotational values are in degrees (yes) or radians (no).

endheader
time	pelvis_tilt	pelvis_list	pelvis_rotation	pelvis_tx	pelvis_ty	pelvis_tz	hip_flexion_r	hip_adduction_r	hip_rotation_r	knee_angle_r	knee_angle_r_beta	ankle_angle_r	subtalar_angle_r	mtp_angle_r	hip_flexion_l	hip_adduction_l	hip_rotation_l	knee_angle_l	knee_angle_l_beta	ankle_angle_l	subtalar_angle_l	mtp_angle_l	lumbar_extension	lumbar_bending	lumbar_rotation	arm_flex_r	arm_add_r	arm_rot_r	elbow_flex_r	pro_sup_r	wrist_flex_r	wrist_dev_r	arm_flex_l	arm_add_l	arm_rot_l	elbow_flex_l	pro_sup_l	wrist_flex_l	wrist_dev_l
      0.00000000	     -0.92756193	      3.72297606	      5.75989434	     -0.19011267	      1.09928275	      0.03808998	     32.21386139	    -11.56263233	     -3.90867491	     50.29273715	      0.87777385	    -21.09707644	    -40.64015698	      0.00000000	     78.26472545	      1.35109131	      5.23538847	     96.72714977	      1.68820724	     -4.34834256	    -29.03101245	      0.00000000	    -58.59569953	      0.04313551	     -9.35076730	     86.05656858	     -3.00295317	      5.26920987	     36.96407315	      3.47408292	      0.00000000	      0.00000000	     89.82406052	    -22.52158579	     32.79241902	     58.48764502	     88.82566868	      0.00000000	      0.00000000
      0.00833333	     -0.92111785	      3.50281235	      5.75408005	     -0.19085092	      1.09933912	      0.03778194	     33.00519723	    -11.49736557	     -3.76863639	     52.65344155	      0.91897592	    -20.83000194	    -41.21222772	      0.00000000	     77.42442392	      1.50749865	      5.42381617	     94.40733293	      1.64771880	     -4.58958581	    -29.75422754	      0.00000000	    -58.63679109	      0.25177717	     -9.16091295	     86.21612840	     -2.94702231	      5.21041625	     36.91366402	      3.60362360	      0.00000000	      0.00000000	     89.82400703	    -22.50175358	     32.57786807	     58.53009447	     88.82692662	      0.00000000	      0.00000000
      0.01666667	     -0.73743788	      3.25850687	      5.86724292	     -0.19132127	      1.09967385	      0.03741810	     33.56815147	    -11.45159165	     -3.73279363	     55.12121242	      0.96204664	    -20.10249837	    -41.39525378	      0.00000000	     76.18442088	      1.68402113	      5.66436757	     91.95133386	      1.60485353	     -4.35663238	    -29.62275957	      0.00000000	    -58.84847649	      0.57936268	     -8.98470110	     86.34514236	     -2.82277039	      4.84317575	     36.88255912	      3.79829317	      0.00000000	      0.00000000	     89.82311413	    -22.41149171	     32.29791780	     58.48619422	     88.85462989	      0.00000000	      0.00000000
      0.02500000	     -0.48716482	      2.84889365	      5.71109807	     -0.19157253	      1.09975004	      0.03745610	     34.22112999	    -11.01540324	     -3.36268345	     57.90608115	      1.01065177	    -19.10879024	    -41.64939347	      0.00000000	     74.83092540	      1.44719089	      5.93812682	     89.63871946	      1.56449079	     -4.26591379	    -29.92193847	      0.00000000	    -59.06419462	      0.76966580	     -8.64137874	     86.42260858	     -2.59396771	      4.10535776	     36.86630257	      4.36708950	      0.00000000	      0.00000000	     89.82586494	    -22.50741955	     32.24804243	     58.45997808	     88.89469036	      0.00000000	      0.00000000
      0.03333333	     -0.43106953	      2.66163391	      5.65468907	     -0.19201928	      1.09964179	      0.03701615	     35.11085848	    -10.91968926	     -3.09780361	     60.56778213	      1.05710722	    -18.49024004	    -42.18814745	      0.00000000	     73.50131544	      1.66801955	      6.24793159	     86.85810667	      1.51595994	     -5.13820041	    -30.96680064	      0.00000000	    -59.14598735	      0.92886923	     -8.38630859	     86.59646185	     -2.73403535	      4.75612628	     36.86158156	      3.81924689	      0.00000000	      0.00000000	     89.82331946	    -22.38756152	     32.03551417	     58.52115056	     88.83302990	      0.00000000	      0.00000000
      0.04166667	     -0.15696292	      1.92441126	      5.70133337	     -0.19232152	      1.10010202	      0.03701618	     35.70954835	    -10.45415670	     -3.37557632	     63.29203249	      1.10465436	    -17.04756340	    -42.01925741	      0.00000000	     71.84794370	      1.55184344	      7.06110128	     84.16040046	      1.46887609	     -5.44288398	    -31.80971952	      0.00000000	    -59.38261827	      1.51026269	     -7.74549163	     86.75341143	     -2.70668832	      4.65029321	     36.71828838	      3.80739566	      0.00000000	      0.00000000	     89.81875407	    -22.25364493	     31.69386967	     58.30246088	     88.82955076	      0.00000000	      0.00000000
      0.05000000	      0.22117915	      1.58920747	      5.49605954	     -0.19214105	      1.10037838	      0.03698389	     36.32764327	    -10.12800360	     -3.07429668	     66.03188189	      1.15247375	    -16.04881094	    -42.30719409	      0.00000000	     70.10364513	      0.94741484	      6.98685294	     81.50712074	      1.42256762	     -5.82687512	    -31.57026089	      0.00000000	    -59.72959104	      1.64847362	     -7.29530041	     86.84962497	     -2.75015639	      4.77407181	     36.69357915	      3.77306618	      0.00000000	      0.00000000	     89.81522478	    -22.17542220	     31.60513168	     58.20665631	     88.82707660	      0.00000000	      0.00000000
      0.05833333	      0.77017628	      1.22343457	      5.23461602	     -0.19162652	      1.10083509	      0.03698838	     36.78930729	     -9.75630663	     -2.78770500	     68.77044667	      1.20027072	    -14.85863541	    -41.82158153	      0.00000000	     68.08675741	      0.12777079	      6.76845163	     78.89976857	      1.37706074	     -6.06154991	    -31.31246742	      0.00000000	    -60.24289464	      1.76681209	     -6.78561712	     86.94863502	     -2.80265893	      4.95672922	     36.66750713	      3.77439755	      0.00000000	      0.00000000	     89.81116343	    -22.10227121	     31.51616818	     58.10684077	     88.83139338	      0.00000000	      0.00000000
